<svg xmlns="http://www.w3.org/2000/svg" xmlns:xlink="http://www.w3.org/1999/xlink" width="500" zoomAndPan="magnify" viewBox="0 0 375 374.999991" height="500" preserveAspectRatio="xMidYMid meet" version="1.0"><defs><g/><clipPath id="id1"><path d="M 310 83 L 349 83 L 349 123 L 310 123 Z M 310 83 " clip-rule="nonzero"/></clipPath><clipPath id="id2"><path d="M 274.167969 97.085938 L 321.054688 47.492188 L 348.304688 73.253906 L 301.417969 122.847656 Z M 274.167969 97.085938 " clip-rule="nonzero"/></clipPath><clipPath id="id3"><path d="M 274.167969 97.085938 L 321.054688 47.492188 L 389.179688 111.894531 L 342.292969 161.492188 Z M 274.167969 97.085938 " clip-rule="nonzero"/></clipPath><clipPath id="id4"><path d="M 298.011719 102.578125 L 336.484375 61.882812 L 389.265625 111.785156 L 350.796875 152.476562 Z M 298.011719 102.578125 " clip-rule="nonzero"/></clipPath><clipPath id="id5"><path d="M 298.011719 102.578125 L 336.390625 61.980469 L 389.175781 111.882812 L 350.796875 152.476562 Z M 298.011719 102.578125 " clip-rule="nonzero"/></clipPath><clipPath id="id6"><path d="M 296 72 L 307 72 L 307 83 L 296 83 Z M 296 72 " clip-rule="nonzero"/></clipPath><clipPath id="id7"><path d="M 274.167969 97.085938 L 321.054688 47.492188 L 348.304688 73.253906 L 301.417969 122.847656 Z M 274.167969 97.085938 " clip-rule="nonzero"/></clipPath><clipPath id="id8"><path d="M 274.167969 97.085938 L 321.054688 47.492188 L 389.179688 111.894531 L 342.292969 161.492188 Z M 274.167969 97.085938 " clip-rule="nonzero"/></clipPath><clipPath id="id9"><path d="M 317 62 L 323 62 L 323 76 L 317 76 Z M 317 62 " clip-rule="nonzero"/></clipPath><clipPath id="id10"><path d="M 274.167969 97.085938 L 321.054688 47.492188 L 348.304688 73.253906 L 301.417969 122.847656 Z M 274.167969 97.085938 " clip-rule="nonzero"/></clipPath><clipPath id="id11"><path d="M 274.167969 97.085938 L 321.054688 47.492188 L 389.179688 111.894531 L 342.292969 161.492188 Z M 274.167969 97.085938 " clip-rule="nonzero"/></clipPath><clipPath id="id12"><path d="M 334 71 L 345 71 L 345 82 L 334 82 Z M 334 71 " clip-rule="nonzero"/></clipPath><clipPath id="id13"><path d="M 274.167969 97.085938 L 321.054688 47.492188 L 348.304688 73.253906 L 301.417969 122.847656 Z M 274.167969 97.085938 " clip-rule="nonzero"/></clipPath><clipPath id="id14"><path d="M 274.167969 97.085938 L 321.054688 47.492188 L 389.179688 111.894531 L 342.292969 161.492188 Z M 274.167969 97.085938 " clip-rule="nonzero"/></clipPath><clipPath id="id15"><path d="M 297 110 L 308 110 L 308 121 L 297 121 Z M 297 110 " clip-rule="nonzero"/></clipPath><clipPath id="id16"><path d="M 274.167969 97.085938 L 321.054688 47.492188 L 348.304688 73.253906 L 301.417969 122.847656 Z M 274.167969 97.085938 " clip-rule="nonzero"/></clipPath><clipPath id="id17"><path d="M 274.167969 97.085938 L 321.054688 47.492188 L 389.179688 111.894531 L 342.292969 161.492188 Z M 274.167969 97.085938 " clip-rule="nonzero"/></clipPath><clipPath id="id18"><path d="M 287 94 L 301 94 L 301 99 L 287 99 Z M 287 94 " clip-rule="nonzero"/></clipPath><clipPath id="id19"><path d="M 274.167969 97.085938 L 321.054688 47.492188 L 348.304688 73.253906 L 301.417969 122.847656 Z M 274.167969 97.085938 " clip-rule="nonzero"/></clipPath><clipPath id="id20"><path d="M 274.167969 97.085938 L 321.054688 47.492188 L 389.179688 111.894531 L 342.292969 161.492188 Z M 274.167969 97.085938 " clip-rule="nonzero"/></clipPath><clipPath id="id21"><path d="M 310.554688 81.558594 L 349.554688 81.558594 L 349.554688 140.808594 L 310.554688 140.808594 Z M 310.554688 81.558594 " clip-rule="nonzero"/></clipPath></defs><g fill="#ffffff" fill-opacity="1"><g transform="translate(276.086999, 295.279807)"><g><path d="M 44.964844 -108.085938 L 8.648438 -95.980469 C 6.339844 -95.117188 4.898438 -92.8125 4.898438 -90.792969 L 4.898438 -69.753906 C 4.898438 -66.871094 7.492188 -64.277344 10.375 -64.277344 C 11.242188 -64.277344 12.105469 -64.5625 12.683594 -64.851562 L 74.941406 -93.964844 C 76.957031 -94.828125 78.109375 -96.847656 78.109375 -99.152344 L 78.109375 -123.363281 C 78.109375 -125.667969 76.957031 -127.6875 74.941406 -128.550781 L 12.96875 -157.375 C 12.96875 -157.664062 12.683594 -157.664062 12.394531 -157.664062 C 12.105469 -157.953125 11.242188 -158.238281 10.375 -158.238281 C 7.492188 -158.238281 4.898438 -155.933594 4.898438 -152.476562 L 4.898438 -131.722656 C 4.898438 -129.417969 6.339844 -127.398438 8.648438 -126.535156 L 44.964844 -114.429688 C 46.117188 -114.140625 47.269531 -112.699219 47.269531 -111.257812 C 47.269531 -109.816406 46.117188 -108.664062 44.964844 -108.085938 Z M 44.964844 -108.085938 "/></g></g></g><path stroke-linecap="butt" transform="matrix(0.75, 0, 0, 0.75, 262.325495, 57.829523)" fill="none" stroke-linejoin="miter" d="M 91.519137 162.883564 L 43.102467 179.02419 C 40.008717 180.14919 38.128509 183.24294 38.128509 185.966899 L 38.128509 214.018984 C 38.128509 217.867943 41.508717 221.336693 45.352468 221.336693 C 46.576426 221.336693 47.701426 220.867943 48.451426 220.492943 L 131.48789 181.74294 C 134.20664 180.52419 135.70664 177.893982 135.70664 174.800231 L 135.70664 142.524188 C 135.70664 139.425229 134.20664 136.706479 131.48789 135.581479 L 48.826426 97.206476 C 48.826426 96.737726 48.451426 96.737726 48.076426 96.737726 C 47.701426 96.362726 46.576426 95.987726 45.352468 95.987726 C 41.508717 95.987726 38.128509 99.081476 38.128509 103.680435 L 38.128509 131.35752 C 38.128509 134.456479 40.008717 137.175229 43.102467 138.300229 L 91.519137 154.440855 C 93.019137 154.815855 94.612888 156.690855 94.612888 158.659605 C 94.612888 160.539814 93.019137 162.133564 91.519137 162.883564 Z M 91.519137 162.883564 " stroke="#356ea9" stroke-width="4.803875" stroke-opacity="1" stroke-miterlimit="4"/><g clip-path="url(#id1)"><g clip-path="url(#id2)"><g clip-path="url(#id3)"><g clip-path="url(#id4)"><g clip-path="url(#id5)"><path fill="#356ea9" d="M 334.097656 125.832031 C 333.425781 126.609375 333.109375 127.628906 333.136719 128.652344 L 333.144531 128.882812 C 333.199219 131.050781 335.011719 132.761719 337.179688 132.699219 L 359.121094 132.035156 L 359.230469 132.046875 C 362.601562 132.335938 365.835938 131.128906 368.105469 128.730469 L 376.300781 120.058594 C 380.480469 115.640625 380.136719 108.503906 375.535156 104.152344 L 358.320312 87.878906 C 357.21875 86.835938 355.476562 86.890625 354.433594 87.996094 L 354.316406 88.121094 C 353.5625 88.917969 353.375 90.050781 353.746094 91.007812 C 354.023438 91.734375 353.910156 92.546875 353.375 93.113281 L 353.167969 93.332031 C 352.433594 94.109375 351.210938 94.144531 350.4375 93.414062 L 348.917969 91.976562 C 347.816406 90.933594 346.074219 90.984375 345.027344 92.09375 L 344.910156 92.214844 C 344.15625 93.011719 343.96875 94.144531 344.339844 95.105469 C 344.617188 95.828125 344.503906 96.644531 343.96875 97.210938 L 343.765625 97.425781 C 343.027344 98.203125 341.804688 98.242188 341.03125 97.507812 L 339.875 96.417969 C 338.773438 95.375 337.03125 95.425781 335.988281 96.535156 L 335.871094 96.65625 C 334.824219 97.761719 334.867188 99.503906 335.972656 100.546875 L 336.070312 100.640625 C 337.082031 101.597656 336.730469 103.285156 335.417969 103.765625 C 334.734375 104.019531 333.964844 103.847656 333.453125 103.335938 L 333.386719 103.269531 L 319.246094 89.898438 C 318.199219 88.910156 316.554688 88.78125 315.4375 89.699219 C 314.085938 90.804688 314.046875 92.804688 315.269531 93.960938 L 344.101562 121.21875 C 345.25 122.304688 344.503906 124.242188 342.921875 124.289062 L 336.964844 124.46875 C 335.859375 124.503906 334.832031 124.988281 334.097656 125.832031 Z M 379.015625 122.628906 L 370.820312 131.296875 C 367.785156 134.507812 363.484375 136.140625 359.003906 135.785156 L 337.277344 136.441406 C 333.042969 136.570312 329.511719 133.230469 329.398438 128.996094 L 329.390625 128.636719 C 329.335938 126.585938 330.085938 124.632812 331.5 123.136719 C 332.910156 121.644531 334.816406 120.789062 336.867188 120.726562 L 338.074219 120.691406 L 312.691406 96.691406 C 310.058594 94.203125 309.949219 90.027344 312.449219 87.386719 C 314.945312 84.742188 319.121094 84.617188 321.753906 87.105469 L 331.703125 96.511719 C 331.996094 95.636719 332.476562 94.804688 333.15625 94.089844 L 333.269531 93.964844 C 335.214844 91.910156 338.183594 91.398438 340.625 92.472656 C 340.894531 91.445312 341.414062 90.472656 342.195312 89.648438 L 342.308594 89.523438 C 344.363281 87.355469 347.558594 86.90625 350.070312 88.226562 C 350.351562 87.257812 350.859375 86.335938 351.601562 85.550781 L 351.714844 85.429688 C 354.183594 82.820312 358.300781 82.695312 360.902344 85.152344 L 378.113281 101.425781 C 384.210938 107.191406 384.617188 116.703125 379.015625 122.628906 " fill-opacity="1" fill-rule="nonzero"/></g></g></g></g></g><g clip-path="url(#id6)"><g clip-path="url(#id7)"><g clip-path="url(#id8)"><path fill="#356ea9" d="M 305.757812 81.5625 C 304.945312 82.421875 303.589844 82.464844 302.734375 81.652344 L 296.914062 76.152344 C 296.058594 75.339844 296.023438 73.988281 296.835938 73.125 C 297.648438 72.265625 299.003906 72.226562 299.859375 73.035156 L 305.679688 78.535156 C 306.539062 79.347656 306.574219 80.703125 305.757812 81.5625 " fill-opacity="1" fill-rule="nonzero"/></g></g></g><g clip-path="url(#id9)"><g clip-path="url(#id10)"><g clip-path="url(#id11)"><path fill="#356ea9" d="M 321.664062 74.417969 C 321.289062 74.816406 320.761719 75.070312 320.167969 75.089844 C 318.988281 75.125 318.003906 74.195312 317.972656 73.011719 L 317.765625 64.992188 C 317.734375 63.808594 318.667969 62.824219 319.851562 62.789062 C 321.03125 62.75 322.015625 63.679688 322.042969 64.863281 L 322.253906 72.882812 C 322.269531 73.476562 322.042969 74.015625 321.664062 74.417969 " fill-opacity="1" fill-rule="nonzero"/></g></g></g><g clip-path="url(#id12)"><g clip-path="url(#id13)"><g clip-path="url(#id14)"><path fill="#356ea9" d="M 343.441406 74.75 L 337.917969 80.59375 C 337.105469 81.453125 335.75 81.492188 334.890625 80.683594 C 334.035156 79.875 334 78.519531 334.8125 77.660156 L 340.339844 71.816406 C 341.152344 70.953125 342.507812 70.914062 343.363281 71.722656 C 344.222656 72.535156 344.257812 73.886719 343.441406 74.75 " fill-opacity="1" fill-rule="nonzero"/></g></g></g><g clip-path="url(#id15)"><g clip-path="url(#id16)"><g clip-path="url(#id17)"><path fill="#356ea9" d="M 306.59375 113.726562 L 301.070312 119.566406 C 300.257812 120.429688 298.902344 120.46875 298.042969 119.660156 C 297.1875 118.847656 297.152344 117.496094 297.964844 116.632812 L 303.492188 110.789062 C 304.304688 109.929688 305.660156 109.890625 306.515625 110.699219 C 307.371094 111.507812 307.40625 112.863281 306.59375 113.726562 " fill-opacity="1" fill-rule="nonzero"/></g></g></g><g clip-path="url(#id18)"><g clip-path="url(#id19)"><g clip-path="url(#id20)"><path fill="#356ea9" d="M 299.515625 97.84375 C 299.140625 98.242188 298.609375 98.5 298.019531 98.515625 L 290 98.757812 C 288.816406 98.792969 287.835938 97.863281 287.804688 96.683594 C 287.773438 95.5 288.707031 94.515625 289.886719 94.480469 L 297.910156 94.238281 C 299.089844 94.203125 300.074219 95.132812 300.105469 96.3125 C 300.117188 96.902344 299.894531 97.445312 299.515625 97.84375 " fill-opacity="1" fill-rule="nonzero"/></g></g></g><g fill="#ffffff" fill-opacity="1"><g transform="translate(185.698996, 232.761957)"><g><path d="M 41.523438 -99.179688 C 40.097656 -99.179688 2.015625 -101.195312 2.015625 -68.214844 C 2.015625 -47.574219 16.964844 -35.710938 37.015625 -35.710938 L 44.132812 -35.710938 C 48.046875 -35.710938 51.25 -33.335938 51.25 -29.421875 C 51.25 -25.625 48.046875 -22.898438 44.726562 -22.898438 C 42.828125 -22.898438 39.625 -23.488281 38.4375 -28.234375 C 38.082031 -29.183594 37.605469 -29.777344 35.828125 -29.421875 L 4.035156 -25.625 C 2.253906 -25.269531 1.898438 -24.082031 2.847656 -22.304688 C 7.710938 -8.777344 16.371094 4.269531 46.03125 4.269531 C 60.976562 4.269531 79.839844 -3.914062 79.839844 -30.015625 C 79.839844 -62.164062 51.488281 -59.792969 41.523438 -59.792969 C 38.4375 -59.792969 32.507812 -60.503906 32.507812 -66.199219 C 32.507812 -70.824219 36.421875 -72.84375 39.03125 -72.84375 C 40.929688 -72.84375 44.132812 -71.417969 45.320312 -68.214844 C 45.792969 -66.792969 46.859375 -66.199219 48.046875 -66.199219 L 77.113281 -70.230469 C 78.417969 -70.351562 79.367188 -71.65625 79.011719 -73.433594 C 77.707031 -79.839844 72.011719 -99.179688 41.523438 -99.179688 Z M 41.523438 -99.179688 "/></g></g></g><path stroke-linecap="butt" transform="matrix(0.75, 0, 0, 0.75, 174.966922, 134.164986)" fill="none" stroke-linejoin="miter" d="M 77.205568 -6.230398 C 75.273276 -6.230398 24.533689 -8.933523 24.533689 35.056063 C 24.533689 62.587315 44.460774 78.384191 71.184734 78.384191 L 80.684735 78.384191 C 85.893068 78.384191 90.143069 81.550858 90.143069 86.7644 C 90.143069 91.821692 85.893068 95.4519 81.455568 95.4519 C 78.945151 95.4519 74.658692 94.681067 73.075359 88.347733 C 72.611817 87.071692 71.955567 86.300858 69.596192 86.7644 L 27.195148 91.821692 C 24.840981 92.3269 24.377439 93.910234 25.611814 96.264401 C 32.101398 114.30086 43.648274 131.675861 83.189943 131.675861 C 103.117028 131.675861 128.299321 120.785235 128.299321 85.993567 C 128.299321 43.123772 90.492027 46.290439 77.205568 46.290439 C 73.075359 46.290439 65.158692 45.326897 65.158692 37.717522 C 65.158692 31.576896 70.372234 28.873771 73.887859 28.873771 C 76.393068 28.873771 80.684735 30.769605 82.268068 35.056063 C 82.882651 36.946688 84.309735 37.717522 85.893068 37.717522 L 124.627446 32.352938 C 126.367029 32.196688 127.643071 30.457105 127.179529 28.102938 C 125.439946 19.53002 117.83057 -6.230398 77.205568 -6.230398 Z M 77.205568 -6.230398 " stroke="#356ea9" stroke-width="4.943406" stroke-opacity="1" stroke-miterlimit="4"/><g fill="#ffffff" fill-opacity="1"><g transform="translate(92.148704, 227.731055)"><g><path d="M 40.535156 -95.960938 C 21.152344 -95.960938 2.007812 -80.359375 2.007812 -60.863281 L 2.007812 -33.917969 C 2.007812 -13.707031 21.152344 2.007812 40.535156 2.007812 C 60.390625 2.007812 79.0625 -13.707031 79.0625 -33.917969 L 79.0625 -60.863281 C 79.0625 -80.359375 60.390625 -95.960938 40.535156 -95.960938 Z M 48.453125 -35.097656 C 48.453125 -31.082031 44.789062 -27.535156 40.535156 -27.535156 C 36.164062 -27.535156 32.734375 -31.082031 32.734375 -35.097656 L 32.734375 -58.734375 C 32.734375 -62.988281 36.164062 -66.535156 40.535156 -66.535156 C 44.789062 -66.535156 48.453125 -62.988281 48.453125 -58.734375 Z M 48.453125 -35.097656 "/></g></g></g><path stroke-linecap="butt" transform="matrix(0.75, 0, 0, 0.75, 85.434616, 134.095786)" fill="none" stroke-linejoin="miter" d="M 73.972601 -1.950632 C 48.118432 -1.950632 22.613222 18.861869 22.613222 44.867079 L 22.613222 80.757707 C 22.613222 107.726459 48.118432 128.69521 73.972601 128.69521 C 100.436144 128.69521 125.326771 107.726459 125.326771 80.757707 L 125.326771 44.867079 C 125.326771 18.861869 100.436144 -1.950632 73.972601 -1.950632 Z M 84.514268 79.18479 C 84.514268 84.570207 79.623643 89.299374 73.972601 89.299374 C 68.123642 89.299374 63.581975 84.570207 63.581975 79.18479 L 63.581975 47.674371 C 63.581975 42.023329 68.123642 37.288954 73.972601 37.288954 C 79.623643 37.288954 84.514268 42.023329 84.514268 47.674371 Z M 84.514268 79.18479 " stroke="#356ea9" stroke-width="4.924188" stroke-opacity="1" stroke-miterlimit="4"/><g fill="#ffffff" fill-opacity="1"><g transform="translate(-7.803994, 295.279807)"><g><path d="M 45.828125 -108.085938 C 44.675781 -108.664062 43.523438 -109.816406 43.523438 -111.257812 C 43.523438 -112.699219 44.675781 -114.140625 45.828125 -114.429688 L 82.144531 -126.535156 C 84.453125 -127.398438 85.894531 -129.417969 85.894531 -131.722656 L 85.894531 -152.476562 C 85.894531 -155.933594 83.300781 -158.238281 80.417969 -158.238281 C 79.550781 -158.238281 78.6875 -157.953125 78.398438 -157.664062 C 78.109375 -157.664062 77.824219 -157.664062 77.824219 -157.375 L 15.851562 -128.550781 C 13.835938 -127.6875 12.683594 -125.667969 12.683594 -123.363281 L 12.683594 -99.152344 C 12.683594 -96.847656 13.835938 -94.828125 15.851562 -93.964844 L 78.109375 -64.851562 C 78.6875 -64.5625 79.550781 -64.277344 80.417969 -64.277344 C 83.300781 -64.277344 85.894531 -66.871094 85.894531 -69.753906 L 85.894531 -90.792969 C 85.894531 -92.8125 84.453125 -95.117188 82.144531 -95.980469 Z M 45.828125 -108.085938 "/></g></g></g><path stroke-linecap="butt" transform="matrix(0.75, 0, 0, 0.75, -17.674881, 57.829523)" fill="none" stroke-linejoin="miter" d="M 87.457139 162.883564 C 85.951931 162.133564 84.358181 160.539814 84.358181 158.659605 C 84.358181 156.690855 85.951931 154.815855 87.457139 154.440855 L 135.868601 138.300229 C 138.967559 137.175229 140.93631 134.456479 140.93631 131.35752 L 140.93631 103.680435 C 140.93631 99.081476 137.462351 95.987726 133.618601 95.987726 C 132.399851 95.987726 131.269642 96.362726 130.894642 96.737726 C 130.519642 96.737726 130.144642 96.737726 130.144642 97.206476 L 47.483178 135.581479 C 44.858178 136.706479 43.264428 139.425229 43.264428 142.524188 L 43.264428 174.800231 C 43.264428 177.893982 44.858178 180.52419 47.483178 181.74294 L 130.519642 220.492943 C 131.269642 220.867943 132.399851 221.336693 133.618601 221.336693 C 137.462351 221.336693 140.93631 217.867943 140.93631 214.018984 L 140.93631 185.966899 C 140.93631 183.24294 138.967559 180.14919 135.868601 179.02419 Z M 87.457139 162.883564 " stroke="#356ea9" stroke-width="4.803875" stroke-opacity="1" stroke-miterlimit="4"/><g clip-path="url(#id21)"><path fill="#ffffff" d="M 349.039062 113.417969 C 348.535156 114.710938 347.328125 115.554688 345.953125 115.582031 C 346.53125 116.515625 346.648438 117.679688 346.234375 118.746094 C 345.703125 120.113281 344.410156 120.996094 342.949219 120.996094 L 341.539062 120.996094 L 344.289062 126.609375 C 345.101562 128.261719 344.433594 130.296875 342.808594 131.144531 L 341.484375 131.835938 C 342.320312 133.550781 341.628906 135.664062 339.9375 136.542969 L 332.539062 140.402344 C 332.035156 140.664062 331.476562 140.800781 330.914062 140.800781 C 330.523438 140.800781 330.136719 140.734375 329.769531 140.609375 C 328.847656 140.289062 328.097656 139.597656 327.699219 138.71875 L 322.410156 127 L 316.734375 133.160156 C 315.742188 134.238281 314.222656 134.589844 312.859375 134.054688 C 311.496094 133.515625 310.617188 132.222656 310.617188 130.753906 L 310.554688 90.523438 C 310.550781 89.109375 311.382812 87.832031 312.667969 87.265625 C 312.976562 87.128906 313.300781 87.039062 313.625 86.996094 L 313.621094 85.246094 C 313.621094 83.886719 314.417969 82.660156 315.65625 82.113281 C 316.890625 81.570312 318.332031 81.8125 319.324219 82.742188 L 348.1875 109.671875 C 349.21875 110.632812 349.550781 112.101562 349.039062 113.417969 Z M 349.039062 113.417969 " fill-opacity="1" fill-rule="nonzero"/></g><path fill="#ffffff" d="M 333.070312 112.347656 L 340.714844 127.941406 L 334.035156 131.421875 L 326.726562 115.226562 C 326.671875 115.105469 326.558594 115.019531 326.429688 114.996094 C 326.40625 114.992188 326.386719 114.992188 326.363281 114.992188 C 326.253906 114.992188 326.148438 115.039062 326.070312 115.121094 L 317.476562 124.449219 L 317.417969 86.160156 L 344.863281 111.769531 L 333.429688 111.769531 C 333.289062 111.769531 333.164062 111.839844 333.089844 111.957031 C 333.015625 112.078125 333.007812 112.222656 333.070312 112.347656 Z M 333.070312 112.347656 " fill-opacity="1" fill-rule="nonzero"/><path fill="#356ea9" d="M 346.152344 111.875 L 317.289062 84.945312 C 317.171875 84.835938 317 84.808594 316.855469 84.871094 C 316.710938 84.9375 316.617188 85.082031 316.617188 85.238281 L 316.628906 92.15625 L 314.449219 90.121094 C 314.292969 89.976562 314.0625 89.9375 313.867188 90.023438 C 313.671875 90.109375 313.546875 90.304688 313.546875 90.519531 L 313.609375 130.75 C 313.609375 130.972656 313.746094 131.167969 313.949219 131.25 C 314.15625 131.332031 314.390625 131.277344 314.539062 131.113281 L 323.277344 121.632812 L 330.425781 137.472656 C 330.488281 137.609375 330.601562 137.710938 330.738281 137.761719 C 330.796875 137.78125 330.855469 137.789062 330.914062 137.789062 C 331 137.789062 331.085938 137.769531 331.160156 137.730469 L 338.5625 133.875 C 338.820312 133.738281 338.921875 133.421875 338.792969 133.15625 L 337.503906 130.519531 L 341.429688 128.472656 C 341.621094 128.371094 341.699219 128.136719 341.605469 127.9375 L 336.726562 117.988281 L 342.949219 117.988281 C 343.167969 117.988281 343.367188 117.851562 343.445312 117.644531 C 343.527344 117.441406 343.472656 117.203125 343.3125 117.054688 L 338.507812 112.574219 L 345.878906 112.574219 C 346.042969 112.574219 346.191406 112.472656 346.253906 112.316406 C 346.3125 112.164062 346.273438 111.988281 346.152344 111.875 Z M 333.070312 112.347656 L 340.714844 127.941406 L 334.035156 131.421875 L 326.726562 115.226562 C 326.671875 115.105469 326.558594 115.019531 326.429688 114.996094 C 326.40625 114.992188 326.386719 114.992188 326.363281 114.992188 C 326.253906 114.992188 326.148438 115.039062 326.070312 115.121094 L 317.476562 124.449219 L 317.417969 86.160156 L 344.863281 111.769531 L 333.429688 111.769531 C 333.289062 111.769531 333.164062 111.839844 333.089844 111.957031 C 333.015625 112.078125 333.007812 112.222656 333.070312 112.347656 Z M 333.070312 112.347656 " fill-opacity="1" fill-rule="nonzero"/></svg>